<svg version="1.0" xmlns="http://www.w3.org/2000/svg" width="100" height="120" viewBox="0 0 100 120">
  <path fill="#91caed" d="M22.5 104.8V70l29-13.4v36.6l29 9.7v1.9l-29-9.7L22.5 104.8zM32.3 77.4c0-1.5-.7-3.5-2.1-4.6-1.3 1.2-2.1 3.8-2.1 6v16.6l4.2-1.4V77.4zM39.1 74.4c0-1.5-.7-3.5-2.1-4.6-1.3 1.2-2.1 3.8-2.1 6V93l4.2-1.4V74.4zM46 71.4c0-1.5-.7-3.5-2.1-4.6-1.3 1.2-2.1 3.8-2.1 6v17.9l4.2-1.4V71.4zM51.6 7.5l-7.6 24.9 4.6-2.5L51.6 7.5zM59.2 66.8c-1.4 1.1-2.1 3.1-2.1 4.6v17.9l4.2 1.4V72.7C61.3 70.5 60.5 67.9 59.2 66.8zM66 69.8c-1.4 1.1-2.1 3.1-2.1 4.6v17.2l4.2 1.4V75.7C68.1 73.5 67.3 70.9 66 69.8zM72.9 72.7c-1.4 1.1-2.1 3.1-2.1 4.6v16.6l4.2 1.4V78.7C75 76.5 74.2 73.9 72.9 72.7zM48.5 37.4v1.9h6.1l4.6 2.4v-1.9l-4.6-2.4L48.5 37.4zM51.6 56.6l29 13.4v-1.9l-29-13.4V56.6zM59.2 32.4l-4.6-2.5-6.1 0v1.9h6.1l2.9 1.6v2.4l1.6-.8V32.4zM51.6 54.7l-29 13.4 11.1-13.5v-4.1l3.4-5.2 3.4 2v9.5l4.5-8.4L40.7 46l3.2-4.2 4.6-2.4L51.6 54.7zM39.1 49.4l-4.2 2v6.5l4.2-1.9V49.4zM62.7 56.8v-9.5l3.4-2-4.3 1-3.5 2.1L62.7 56.8zM68.1 57.8v-6.5l-4.2-2V56L68.1 57.8zM45.5 39l2.9-1.6v-5.6l-2.9 1.6V39z" />
</svg>
