<?xml version="1.0" encoding="utf-8"?>
<!-- Generator: Adobe Illustrator 25.2.3, SVG Export Plug-In . SVG Version: 6.00 Build 0)  -->
<svg version="1.1" id="Layer_1" xmlns="http://www.w3.org/2000/svg" xmlns:xlink="http://www.w3.org/1999/xlink" x="0px" y="0px"
	 viewBox="0 0 1145.4 1080" style="enable-background:new 0 0 1145.4 1080;" xml:space="preserve">
<g fill="#91caed">
	<g>
		<path d="M926,1068.8c-0.5-1.1-1.1-2.2-1.3-3.4c-0.2-1.2-0.1-2.5-0.1-3.8c0-251,0-502,0-752.9c0-6.9,0-6.9,7-6.9
			c57.2,0,114.4,0,171.7,0c1.8,0,3.7,0,5.5,0.1c0,255.6,0,511.3,0,766.9C1047.8,1068.8,986.9,1068.8,926,1068.8z M970.9,684.6
			c0,38.8,0,77.7,0,116.5c0,72.6,0,145.3,0,217.9c0,3,0.2,4.9,4.1,4.9c27.8-0.1,55.6-0.1,83.4,0c3,0,4.3-1,4-4c-0.1-1.3,0-2.5,0-3.8
			c0-196,0-391.9,0-587.9c0-26,0-52,0.1-77.9c0-3.3-1-4.4-4.3-4.4c-12.5,0.2-25.1,0.1-37.6,0.1c-15.2,0-30.3,0.1-45.5-0.1
			c-3.1,0-4.5,0.9-4.2,4.1c0.1,1.1,0,2.3,0,3.4C970.9,464,970.9,574.3,970.9,684.6z"/>
		<path d="M468.1,1068.8c-0.2-1.7-0.7-3.4-0.7-5.1c0-186.6,0-373.1,0-559.7c0-4.9,0.1-5,5-5c58,0,116.1,0,174.1,0
			c5,0,5.1,0.1,5.1,4.9c0,187.4,0,374.7,0,562.1c0,0.9,0,1.8-0.1,2.8C590.3,1068.8,529.2,1068.8,468.1,1068.8z M513.7,783.5
			c0,78.5,0,157,0,235.5c0,5,0,5,5,5c27.2,0,54.5,0,81.7,0c4.7,0,4.8-0.1,4.8-4.8c0-157,0-314,0-471c0-4.8,0-4.8-4.8-4.8
			c-27,0-54,0-81,0c-5.7,0-5.7,0-5.7,5.7C513.7,627.1,513.7,705.3,513.7,783.5z"/>
		<path d="M696.3,1068.8c0-1.8-0.1-3.7-0.1-5.5c0-149.5,0-299,0-448.6c0-6.7,0-6.7,6.8-6.7c16.8,0,33.6,0,50.3,0
			c40.2,0,80.4,0,120.7,0c5.8,0,5.8,0,5.8,5.6c0,150.3,0,300.6,0,451c0,1.4-0.1,2.8-0.1,4.1C818.6,1068.8,757.5,1068.8,696.3,1068.8
			z M742.6,837.8c0,60.5,0,120.9,0,181.4c0,4.7,0.1,4.8,4.8,4.8c27.1,0,54.2,0,81.4,0c4.6,0,4.7-0.2,4.7-4.6
			c0-120.8,0-241.6,0-362.4c0-4.5-0.1-4.6-4.7-4.6c-26.9,0-53.8,0-80.7,0c-5.6,0-5.6,0-5.6,5.8C742.6,718,742.6,777.9,742.6,837.8z"
			/>
		<path d="M239.1,1068.8c0-1.7-0.1-3.4-0.1-5.2c0-127.6,0-255.2,0-382.8c0-0.8,0.1-1.6,0-2.4c-0.4-3.4,1.2-4.3,4.4-4.3
			c23.8,0.1,47.6,0.1,71.4,0.1c34,0,68,0,102.1,0c5,0,5.1,0,5.1,4.9c0,128.7,0,257.5,0,386.2c0,1.1-0.1,2.3-0.1,3.4
			C360.9,1068.8,300,1068.8,239.1,1068.8z M376.3,871.2c0-49.3,0-98.6,0-147.9c0-4.7-0.1-4.8-4.8-4.8c-27.1,0-54.2,0-81.3,0
			c-4.7,0-4.8,0.1-4.8,4.9c0,98.6,0,197.2,0,295.8c0,4.8,0.1,4.9,4.8,4.9c26.9,0,53.8,0,80.7,0c5.5,0,5.5,0,5.5-5.6
			C376.3,969.3,376.3,920.3,376.3,871.2z"/>
		<path d="M10.8,1068.8c-0.2-1.7-0.7-3.4-0.7-5.1c0-99,0-197.9,0-296.9c0-4.9,0.1-5,5-5c57.9,0,115.8,0,173.8,0
			c4.6,0,4.7,0.2,4.7,4.6c0,100,0,200,0,300c0,0.8,0,1.6-0.1,2.4C132.7,1068.8,71.7,1068.8,10.8,1068.8z M148,915
			c0-34.7,0-69.4,0-104.1c0-4.8-0.1-4.8-4.8-4.8c-27.1,0-54.2,0-81.3,0c-4.7,0-4.8,0.1-4.8,4.9c0,69.4,0,138.8,0,208.2
			c0,4.7,0.1,4.8,4.9,4.8c27,0,54,0,81,0c5.1,0,5.1,0,5.1-5.2C148,984.1,148,949.5,148,915z"/>
		<path d="M330.6,477.1c-9.2,0.4-17.4-2.6-25-7.5c-1.9-1.2-3.6-1.5-5.8-0.6c-23.3,9-46.5,17.8-69.8,26.7
			c-21.6,8.2-43.1,16.5-64.7,24.8c-4.7,1.8-9.4,3.7-14.2,5.3c-2.9,1-4.4,2.6-5,5.7c-1.8,8.3-5.9,15.6-12.2,21.2
			c-7.4,6.5-16.2,11-26.3,11.8c-13.6,1.1-25.8-2.2-36.4-11.3c-18.4-15.7-19-41.3-6.9-57.5c15.1-20,41.8-24.8,62.1-11.6
			c2.8,1.8,5,1.9,8,0.7c20.7-8.1,41.6-16.1,62.3-24.1c12.1-4.7,24.2-9.4,36.3-14.1c16-6.2,31.9-12.4,47.9-18.4
			c3-1.2,4.7-2.7,5.6-6.1c6.1-22.3,29.2-37,53.4-31.8c6.1,1.3,9.9-0.3,14.4-3.8c12.7-10,25.8-19.5,38.7-29.3
			c14.9-11.3,29.6-22.9,44.5-34.2c10.7-8.2,21.5-16.4,32.3-24.6c14-10.6,28-21.1,42-31.8c1-0.8,2.1-2.5,1.9-3.5
			c-3.1-21,12.2-40.6,30.7-46.4c13.1-4.1,25.6-3.2,37.9,3.4c7.7,4.1,13,10.2,17.6,17.4c3.1,4.9,4.7,10.1,5.6,15.7
			c0.2,1.2,1.4,2.7,2.5,3.2c13.8,6.6,27.6,13.1,41.4,19.7c6.2,2.9,12.5,5.8,18.7,8.8c19.9,9.6,39.7,19.2,59.6,28.7
			c10.7,5.1,21.4,10.2,32,15.3c2.3,1.1,4.3,1.1,6.5-0.1c6.8-3.7,14.1-5.5,21.9-5.1c2.5,0.1,4.3-0.6,5.8-2.7
			c4.9-6.8,10-13.4,15.1-20.1c11-14.8,22.1-29.6,33.1-44.4c5.3-7.1,10.6-14.1,15.9-21.2c11.2-15,22.3-30,33.5-45
			c10.5-14.1,21-28.1,31.5-42.2c10.9-14.6,21.8-29.3,32.7-43.9c6.1-8.2,12.3-16.3,18.4-24.5c0.5-0.6,0.5-1.9,0.2-2.7
			c-5-10.1-5.4-20.8-1-30.7c8.3-18.6,21.5-29,43.9-29.3c14.6-0.2,26.4,6.3,36.3,17.5c10.7,12,12.3,35.8,2.6,49.6
			c-9.5,13.5-22.6,20.5-39.1,21c-3.2,0.1-5.2,1-7.1,3.7c-11.2,15.3-22.6,30.4-33.9,45.6c-5.4,7.2-10.7,14.4-16,21.6
			c-11,14.7-21.9,29.4-32.9,44.1c-5.4,7.2-10.8,14.3-16.1,21.5c-10.9,14.6-21.8,29.2-32.7,43.9c-10.8,14.4-21.5,28.9-32.3,43.3
			c-4.6,6.2-9.2,12.3-13.9,18.4c-1.4,1.8-1.6,3.5-0.7,5.7c4.4,11.4,4.2,22.9-1.6,33.7c-12.8,23.6-39.7,30.9-61.8,20.4
			c-14.3-6.8-22.6-18.1-25.7-33.6c-0.3-1.5-1.7-3.4-3-4.1c-19.2-9.3-38.5-18.5-57.8-27.7c-6-2.9-12-5.7-18-8.6
			c-25.3-12.1-50.6-24.2-75.9-36.1c-1.6-0.7-4.2-0.7-5.7,0c-11.6,5.9-23.5,6.3-35.9,3.5c-1.5-0.3-3.6-0.1-4.8,0.8
			c-10.8,8-21.4,16.2-32.1,24.3c-13.1,9.9-26.2,19.7-39.3,29.6c-8.2,6.2-16.3,12.7-24.5,18.9c-13.2,10.1-26.6,20-39.8,30.1
			c-8.9,6.7-17.7,13.5-26.4,20.4c-1.1,0.9-2.2,2.6-2.1,3.9c1.7,15-4.2,27-14.7,36.9C353.4,473.6,342.7,477.6,330.6,477.1z"/>
	</g>
</g>
</svg>
