<svg version="1.0" xmlns="http://www.w3.org/2000/svg" width="120" height="100" viewBox="0 0 120 100">
  <path fill="#91caed" d="M115.407 39.339Q113.703 45.163 120.321 48.998 120.861 52.946 115.35 53.003 114.672 52.729 114.411 52.37T113.773 52.029 113.198 51.867 112.812 51.696 112.398 51.615 112.102 51.445 109.753 51.395Q111.079 54.101 113.812 55.454 114.21 56.515 112.485 57.603 110.575 58.598 107.256 56.189 94.093 49.603 88.64 50.332 90.098 56.653 92.46 62.175 96.767 65.44 98.642 69.191 99.407 69.782 100.032 70.233 104.79 71.275 109.097 74.401 109.153 74.537 109.144 74.601T108.959 74.74 108.375 74.713 107.764 74.574 107.338 74.657 107.255 75.074 106.931 75.277 106.357 75.027 105.959 74.889 105.718 75.111 105.986 75.398 106.32 75.842 106.32 76.398 106.06 76.481 105.514 76.231 104.773 75.907 103.82 75.639Q100.461 76.229 96.352 76.072 91.372 75.53 87.083 72.09 83.218 69.075 80.161 65.338 77.995 61.388 73.578 58.755 71.752 59.647 68.779 63.299 64.065 65.89 64.617 67.121 64.915 68.098 68.949 69.287 70.818 70.944 72.262 72.6 72.357 72.768 72.099 72.841T71.996 73.181 71.914 73.634 71.368 73.551 70.915 73.315 70.822 73.572 70.564 73.665 70.059 73.325 69.462 73.181Q67.881 73.551 64.226 73.535 60.673 73.905 58.796 70.089 58.2175 69.323 57.639 68.557 53.105 64.272 58.525 57.144 55.758 56.106 52.023 57.756 50.962 57.774 49.901 57.792 50.447 60.238 50.087 69.831 53.533 69.574 55.257 70.551 58.497 71.349 58.626 72.866 59.204 73.176 59.419 73.734T58.997 73.957 58.042 73.622 58.018 73.885 58.305 74.331 58.193 74.848 57.628 75.071 56.951 75.207 55.932 75.111Q55.338 74.765 51.459 75.682 47.545 75.728 44.316 75.267 42.754 74.845 42.264 74.079 37.452 67.183 29.667 61.206C25.28 69.974 19.822 66.413 16.318 69.888Q22.034 71.21 22.608 72.732 23.3695 73.5505 24.131 74.369T23.685 74.909 22.981 75.071 23.07 75.573 22.14 75.427 21.889 75.751 21.755 76.251 20.778 75.846Q19.11 75.416 17.342 75.918 14.992 76.419 13.118 75.337 11.567 74.546 9.825 74.015 8.348 72.887 7.684 70.746 7.941 68.553 9.644 65.368 10.412 61.579 12.169 57.9C13.315 54.573 11.709 47.988 13.797 43.492Q13.181 42.314 12.565 41.136 20.1 23.651 37.769 19.852 46.537 18.16 62.123 21.523 69.042 17.643 75.703 17.255 85.08 17.19 91.999 24.045C95.233 26.05 96.85 25.08 101.376 28.637Q101.946 28.728 102.324 28.173T103.71 27.795 105.171 29.231 106.582 30.743 108.244 30.39 110.159 30.34 111.217 32.481 111.695 34.143 113.963 36.421 115.407 39.339" />
</svg>
