<svg xmlns="http://www.w3.org/2000/svg" viewBox="0 0 1000 1000"><path d="M35.193 500a464.81 464.81 0 0 0 464.81 464.81A464.81 464.81 0 0 0 964.813 500a464.81 464.81 0 0 0-464.81-464.81V500z" style="fill:#73c0e3;paint-order:markers stroke fill"/><path d="M224.42 500 97.58 547.531l134.29 13.422-113.63 74.93 133.92-16.797-94.109 98.332 126.82-46.16-69.857 116.8 113.35-73.23-42.113 129.42 94.225-96.619-12.268 135.55 70.365-115.17 18.205 134.89 42.971-127.94 47.771 127.45 13.422-134.29 74.92 113.63-16.787-133.92 98.332 94.109-46.172-126.82 116.81 69.869-73.23-113.37 129.42 42.123-96.619-94.225 135.55 12.268-115.17-70.365 134.89-18.205-127.94-42.98 127.45-47.76-134.32-13.424 113.65-74.949-133.9 16.797 94.1-98.342-126.82 46.18 69.867-116.81-113.36 73.24 42.113-129.43-94.225 96.631 12.268-135.55-70.365 115.17-18.205-134.89-42.617 126.89-.354 1.049-.226-.604v92.418l.383-.013 13.492-.49 40.512 7.695 37.797 16.51 33.158 24.51 26.893 31.277 19.254 36.48 10.646 39.852 1.511 41.215-7.695 40.512-16.51 37.787-24.52 33.168-31.277 26.883-36.47 19.254-39.843 10.646-41.225 1.511-40.502-7.695-37.797-16.51-33.168-24.52-26.883-31.277-19.244-36.47-10.656-39.843-1.008-27.336h-92.43z" style="fill:#518da3"/><path d="m36.219 500-.42.092 154.3 36.205-142.63 67.086 158.48.972L81.82 701.49l154.73-34.322-99.408 122.32 143.21-67.885-69.69 141.37 124.51-98.055-36.49 153.34 99.574-123.3-1.46 157.62 69.643-142.36 33.656 153.99 36.215-154.29 67.076 142.64.975-158.49 97.135 124.13-34.314-154.72 122.32 99.408-67.894-143.21 141.38 69.7-98.055-124.51 153.34 36.487-123.3-99.582 157.62 1.46-142.36-69.644 153.99-33.648-154.29-36.213 142.64-67.078-158.52-.982 124.15-97.156-154.72 34.324 99.398-122.33-143.21 67.895 69.689-141.37-124.51 98.055 36.48-153.34-99.564 123.3 1.451-157.62-69.635 142.37-33.564-153.5v264.05l26.926.602 43.613 10.979 40.092 20.412 34.527 28.818 27.266 35.787 18.615 40.953 9.03 44.078-1.003 44.977-10.99 43.623-20.412 40.082-28.818 34.537-35.787 27.256-40.95 18.604-44.07 9.03-44.976-1.003-43.613-10.988-40.094-20.412-34.525-28.81-27.266-35.796-18.605-40.953-9.029-44.06.402-18.048z" style="fill:#3e6576"/><path d="m153.27 500-1.107.24 116.05 27.211-107.28 50.178 119.19.707-93.416 72.8 116.36-25.839-74.873 91.766 107.69-51.076-52.574 106.12 93.623-73.768-27.646 115.17 74.86-92.754-1.32 118.42 52.354-107.08 25.053 115.75 27.211-116.04 50.188 107.27.697-119.19 72.81 93.416-25.839-116.36 91.756 74.873-51.076-107.69 106.12 52.584-73.756-93.633 115.16 27.646-92.744-74.86 118.42 1.33-107.08-52.355 115.75-25.062-116.04-27.21 107.28-50.179-119.22-.707 93.436-72.818-116.36 25.838 74.863-91.766-107.69 51.086 52.572-106.12-93.62 73.768 27.645-115.17-74.86 92.754 1.32-118.43-52.344 107.09-22.195-102.5-2.623-12.123v125.58l1.732-.027 19.635-.316 48.76 10.314 45.227 20.896 39.441 30.43 31.69 38.46 22.332 44.556 11.871 48.396.787 49.818-10.312 48.75-20.896 45.227-30.45 39.443-38.45 31.678-44.545 22.332-48.396 11.859-49.818.798-48.74-10.312-45.226-20.896-39.453-30.44-31.678-38.46-22.332-44.535-11.859-48.396-.457-28.438z" style="fill:#224b5b"/><path d="M35.193 500h464.81V35.19A464.81 464.81 0 0 0 35.193 500z" style="fill:#8c6138;paint-order:markers stroke fill"/><path d="M224.42 500h92.43l-.014-.387-.49-13.482 7.695-40.53 16.51-37.788 24.52-33.168 31.268-26.883 36.48-19.244 39.842-10.656 27.34-1.008v-92.418l-47.545-126.85-13.422 134.29-74.93-113.62 16.797 133.9-98.332-94.1 46.17 126.81-116.8-69.857 73.23 113.36-129.43-42.123 96.631 94.225-135.55-12.258 115.17 70.355L97.1 456.783 224 499.4l1.04.354-.616.23z" style="fill:#744c24"/><path d="M36.219 500h264.12l.02-.86h-.004l.572-26.067 10.988-43.613 20.412-40.092 28.818-34.537 35.787-27.256 40.953-18.613 44.068-9.032 18.053.403V36.283l-.106-.483-36.205 154.29L396.61 47.47l-.962 158.48L298.5 81.82l34.324 154.73-122.32-99.408 67.895 143.21-141.38-69.699 98.055 124.51-153.34-36.48 123.3 99.574-157.61-1.449 142.36 69.633-144.58 31.604h-.026l-8.955 1.957z" style="fill:#603813"/><path d="M153.27 500h125.6l-.027-1.736-.317-19.645 10.314-48.75 20.896-45.236 30.441-39.432 38.46-31.69 44.534-22.331 48.396-11.86 28.441-.456v-125.58l-.244-1.13-27.21 116.04-50.19-107.27-.705 119.19L348.86 186.7l25.838 116.36-91.766-74.873 51.086 107.69-106.12-52.574 73.768 93.633-115.17-27.656 92.754 74.87-118.42-1.33 107.08 52.355-102.53 22.195-12.113 2.627z" style="fill:#42210b"/><path d="m499.97 224.08-11.206 44.492a232 232 0 0 0-30.981 3.748l-19.21-41.316-1.026 45.943a232 232 0 0 0-29.304 10.56l-27.987-36.09 9.256 45.184a232 232 0 0 0-26.288 16.624l-35.28-28.928 19.08 41.996a232 232 0 0 0-22.113 21.96l-40.653-20.261 27.86 36.58a232 232 0 0 0-16.473 26.473l-44.254-10.736 35.238 29.414a232 232 0 0 0-10.03 29.528l-45.61-.62 41.02 20.895a232 232 0 0 0-3.402 30.976l-44.53 9.527 44.425 11.191a232 232 0 0 0 3.693 31.056l-41.194 19.151 45.77 1.024a232 232 0 0 0 10.571 29.431l-35.929 27.861 44.95-9.207a232 232 0 0 0 16.69 26.444l-28.763 35.076 41.733-18.96a232 232 0 0 0 22.083 22.275l-20.124 40.37 36.32-27.657a232 232 0 0 0 26.652 16.617l-10.653 43.909 29.171-34.947a232 232 0 0 0 29.765 10.113l-.616 45.236 20.723-40.677a232 232 0 0 0 31.226 3.428l9.45 44.16 11.1-44.064a232 232 0 0 0 31.292-3.736l19.003 40.878 1.017-45.426a232 232 0 0 0 29.633-10.664l27.67 35.68-9.149-44.656a232 232 0 0 0 26.594-16.81l34.867 28.59-18.859-41.509a232 232 0 0 0 22.367-22.21l40.176 20.028-27.546-36.176a232 232 0 0 0 16.616-26.768l43.8 10.626-34.888-29.12a232 232 0 0 0 10.094-29.815l45.197.616-40.677-20.723a232 232 0 0 0 3.393-31.22l44.2-9.455-44.132-11.118a232 232 0 0 0-3.791-31.219l41-19.06-45.6-1.021a232 232 0 0 0-10.65-29.506l35.84-27.792-44.89 9.192a232 232 0 0 0-16.752-26.451l28.754-35.071-41.772 18.98a232 232 0 0 0-22.088-22.204l20.166-40.458-36.436 27.748a232 232 0 0 0-26.594-16.467l10.709-44.149-29.363 35.18a232 232 0 0 0-29.577-10.008l.62-45.572-20.894 41.02a232 232 0 0 0-30.968-3.365z" style="paint-order:markers stroke fill"/></svg>