<?xml version="1.0" encoding="utf-8"?>
<!-- Generator: Adobe Illustrator 25.2.3, SVG Export Plug-In . SVG Version: 6.00 Build 0)  -->
<svg version="1.1" id="Layer_1" xmlns="http://www.w3.org/2000/svg" xmlns:xlink="http://www.w3.org/1999/xlink" x="0px" y="0px"
	 viewBox="0 0 1080 1080" style="enable-background:new 0 0 1080 1080;" xml:space="preserve">
<style type="text/css">
	.st0{fill:#7F7F7F;}
</style>
<g>
	<path class="st0" d="M539,73.2C282.3,73.2,74.2,281.3,74.2,538H539V73.2"/>
	<path d="M540,772c-62,0-120.2-24.1-164-68S308,602,308,540s24.1-120.2,68-164s102.1-68,164-68s120.2,24.1,164,68s68,102.1,68,164
		s-24.1,120.2-68,164S602,772,540,772z"/>
	<path d="M540,310c31.1,0,61.2,6.1,89.5,18.1c27.4,11.6,52,28.2,73.1,49.3c21.1,21.1,37.7,45.7,49.3,73.1
		c12,28.4,18.1,58.5,18.1,89.5s-6.1,61.2-18.1,89.5c-11.6,27.4-28.2,52-49.3,73.1s-45.7,37.7-73.1,49.3
		c-28.4,12-58.5,18.1-89.5,18.1s-61.2-6.1-89.5-18.1c-27.4-11.6-52-28.2-73.1-49.3c-21.1-21.1-37.7-45.7-49.3-73.1
		c-12-28.4-18.1-58.5-18.1-89.5s6.1-61.2,18.1-89.5c11.6-27.4,28.2-52,49.3-73.1c21.1-21.1,45.7-37.7,73.1-49.3
		C478.8,316.1,508.9,310,540,310 M540,306c-129.2,0-234,104.8-234,234s104.8,234,234,234s234-104.8,234-234S669.2,306,540,306z"/>
	<path d="M540,89.2c60.9,0,120,11.9,175.6,35.4c53.7,22.7,101.9,55.2,143.4,96.7c41.4,41.4,73.9,89.7,96.7,143.4
		c23.5,55.6,35.4,114.7,35.4,175.6s-11.9,120-35.4,175.6c-22.7,53.7-55.2,101.9-96.7,143.4c-41.4,41.4-89.7,73.9-143.4,96.7
		c-55.6,23.5-114.7,35.4-175.6,35.4s-120-11.9-175.6-35.4c-53.7-22.7-101.9-55.2-143.4-96.7c-41.4-41.4-73.9-89.7-96.7-143.4
		C100.9,660.2,89,601.1,89,540.2s11.9-120,35.4-175.6c22.7-53.7,55.2-101.9,96.7-143.4c41.4-41.4,89.7-73.9,143.4-96.7
		C420,101.1,479.1,89.2,540,89.2 M540,73.2c-257.9,0-467,209.1-467,467s209.1,467,467,467s467-209.1,467-467S797.9,73.2,540,73.2z"
		/>
	<line x1="540" y1="76" x2="489" y2="312"/>
	<polyline points="534.1,74.7 483.1,310.7 494.9,313.3 545.9,77.3 	"/>
	<polyline points="533.6,76.8 586.6,315.8 598.4,313.2 545.4,74.2 	"/>
	<polyline points="736.8,118.8 587.8,310.8 597.2,318.2 746.2,126.2 	"/>
	<polyline points="333.8,126.2 484.8,316.2 494.2,308.8 343.2,118.8 	"/>
	<polyline points="735.7,121.1 678.7,359.1 690.3,361.9 747.3,123.9 	"/>
	<polyline points="899.8,246.1 681.8,355.1 687.2,365.9 905.2,256.9 	"/>
	<polyline points="992.5,431.5 750.5,432.5 750.5,444.5 992.5,443.5 	"/>
	<polyline points="897.8,247.7 745.8,434.7 755.2,442.3 907.2,255.3 	"/>
	<polyline points="989.9,432.1 770.9,535.1 776.1,545.9 995.1,442.9 	"/>
	<polyline points="995.1,638.1 776.1,535.1 770.9,545.9 989.9,648.9 	"/>
	<polyline points="748.4,646.5 992.4,649.5 992.6,637.5 748.6,634.5 	"/>
	<polyline points="907.2,826.7 753.2,636.7 743.8,644.3 897.8,834.3 	"/>
	<polyline points="682.8,725.9 899.8,835.9 905.2,825.1 688.2,715.1 	"/>
	<polyline points="747.3,957.1 691.3,719.1 679.7,721.9 735.7,959.9 	"/>
	<polyline points="587.8,769.2 736.8,962.2 746.2,954.8 597.2,761.8 	"/>
	<polyline points="545.9,1001.3 598.4,766.8 586.6,764.2 534.1,998.7 	"/>
	<polyline points="482.6,766.8 534.1,1001.3 545.9,998.7 494.4,764.2 	"/>
	<polyline points="343.2,962.2 493.2,769.2 483.8,761.8 333.8,954.8 	"/>
	<polyline points="390.7,720.1 332.7,957.1 344.3,959.9 402.3,722.9 	"/>
	<polyline points="179.2,835.9 399.2,726.9 393.8,716.1 173.8,825.1 	"/>
	<polyline points="326.9,636.7 171.9,826.7 181.1,834.3 336.1,644.3 	"/>
	<polyline points="87.6,650.5 331.6,646.5 331.4,634.5 87.4,638.5 	"/>
	<polyline points="304.9,534.1 84.9,639.1 90.1,649.9 310.1,544.9 	"/>
	<polyline points="85,442.9 305,544.9 310,534.1 90,432.1 	"/>
	<polyline points="328.5,432.5 87.5,431.5 87.5,443.5 328.5,444.5 	"/>
	<polyline points="171.8,255.3 323.8,442.3 333.2,434.7 181.2,247.7 	"/>
	<polyline points="397.1,351.1 179.1,246.1 173.9,256.9 391.9,361.9 	"/>
	<polyline points="332.7,123.9 388.7,357.9 400.3,355.1 344.3,121.1 	"/>
</g>
<g>
</g>
<g>
</g>
<g>
</g>
<g>
</g>
<g>
</g>
<g>
</g>
<g>
</g>
<g>
</g>
<g>
</g>
<g>
</g>
<g>
</g>
<g>
</g>
<g>
</g>
<g>
</g>
<g>
</g>
</svg>
