<?xml version="1.0" encoding="utf-8"?>
<!-- Svg Vector Icons : http://www.onlinewebfonts.com/icon -->
<!DOCTYPE svg PUBLIC "-//W3C//DTD SVG 1.1//EN" "http://www.w3.org/Graphics/SVG/1.1/DTD/svg11.dtd">
<svg version="1.1" xmlns="http://www.w3.org/2000/svg" xmlns:xlink="http://www.w3.org/1999/xlink" x="0px" y="0px" viewBox="0 0 1000 1000" enable-background="new 0 0 1000 1000" xml:space="preserve">
<metadata> Svg Vector Icons : http://www.onlinewebfonts.com/icon </metadata>
<g><g transform="translate(0.000000,512.000000) scale(0.100000,-0.100000)"><path d="M4621.6,5015c-695.5-72.8-1212.9-214.6-1782-494.4c-500.1-245.3-856.5-498.2-1262.7-891c-417.7-408.1-722.4-827.8-981.1-1352.8c-241.4-494.4-389-979.1-471.4-1552.1c-32.6-226.1-32.6-981.1,0-1207.1c136.1-950.4,504-1803.1,1082.6-2506.3C2178.5-4167.1,3644.3-4832,5148.5-4778.3c733.9,28.7,1352.8,182,2002.4,502c511.6,251,881.4,515.4,1295.3,929.3c404.3,402.4,657.2,745.4,900.6,1216.7c737.7,1429.4,737.7,3073.5,0,4502.9c-377.5,732-948.5,1368.1-1645.9,1835.6c-254.8,168.6-743.5,417.7-1029,523.1c-258.7,93.9-640,191.6-940.8,237.6C5493.4,5007.3,4815.1,5034.1,4621.6,5015z M5056.5,4585.8c74.7-46,162.9-49.8,220.4-9.6c32.6,23,69,24.9,208.9,9.6c1220.6-136,2349.2-777.9,3086.9-1757.1c490.5-653.4,777.9-1358.5,877.6-2159.5c23-180.1,23-218.4-1.9-262.5c-38.3-76.7-32.6-164.8,13.4-231.9c42.2-57.5,42.2-57.5,3.8-107.3c-164.8-224.2-937-461.8-1969.8-605.5c-848.8-116.9-1996.6-178.2-2856.9-153.3l-444.5,13.4l-13.4,433c-21.1,699.4,30.7,1866.3,116.9,2579.1c136,1138.2,385.1,2040.7,622.7,2240c32.6,26.8,61.3,49.8,67.1,49.8C4991.4,4624.1,5022,4606.9,5056.5,4585.8z M4372.5,4445.9c-252.9-559.5-433-1456.3-536.5-2692.1c-15.3-193.5-28.7-371.7-28.7-394.7c0-42.2-9.6-44.1-162.9-53.7c-185.9-13.4-247.2-42.2-287.4-138c-38.3-90.1-7.7-193.5,72.8-243.3c51.7-32.6,82.4-38.3,205-28.7l143.7,11.5V121.2c0-431.1-1.9-785.6-3.8-785.6c-72.8,0-812.4,69-1040.4,95.8C1695.6-440.2,844.9-216,590-1.4c-93.9,78.6-103.5,111.1-59.4,184c44.1,74.7,49.8,149.5,11.5,222.3c-21.1,42.2-23,86.2-9.6,224.2c118.8,1101.8,684,2165.2,1540.6,2899.1c609.3,521.2,1372,883.3,2146.1,1017.5c116.9,21.1,212.7,38.3,214.6,38.3C4435.7,4585.8,4408.9,4522.5,4372.5,4445.9z M990.5-624.2c609.3-205,1467.8-344.9,2650-435c157.1-11.5,166.7-15.3,166.7-57.5c0-23,13.4-201.2,28.7-394.7c103.5-1232.1,283.6-2134.6,536.5-2688.3l61.3-138l-164.8,26.8c-875.7,139.9-1728.3,567.2-2395.2,1201.4c-55.6,53.7-184,193.5-283.6,308.5C1059.5-2187.7,687.8-1392.5,563.2-605l-26.8,164.8l139.9-63.3C752.9-537.9,894.7-593.5,990.5-624.2z M9427.2-601.2c-118.8-747.3-457.9-1504.2-946.6-2107.7c-291.3-362.1-783.7-787.5-1176.5-1019.4c-565.3-335.3-1184.2-544.2-1810.7-613.2c-128.4-13.4-172.5-11.5-214.6,9.6c-72.8,38.3-147.5,32.6-224.2-13.4c-65.2-38.3-65.2-38.3-115-3.8C4661.8-4146,4376.3-3027,4259.4-1679.9c-17.3,183.9-34.5,390.9-40.2,459.9l-11.5,124.5h783.7h783.7l-1.9-159c-1.9-157.1,0-161,61.3-216.5c67.1-59.4,139.9-70.9,222.3-32.6c82.4,36.4,111.1,103.5,122.6,274l9.6,159l164.8,11.5C7750.6-953.7,8747-765.9,9312.2-501.5c76.7,34.5,139.9,65.1,139.9,65.1C9454-434.5,9442.5-509.2,9427.2-601.2z"/><path d="M5424.4,4156.6c-78.6-78.6-78.6-105.4-19.2-318.1c26.8-90.1,57.5-197.4,67.1-241.4c28.8-113,99.6-170.5,206.9-170.5c72.8,0,93.9,9.6,141.8,63.2c70.9,80.5,70.9,130.3-5.8,406.2c-72.8,264.4-118.8,325.7-245.3,325.7C5504.9,4221.7,5478.1,4210.2,5424.4,4156.6z"/><path d="M5715.7,2974.3c-86.2-69-93.9-115-57.5-381.3c36.4-277.8,61.3-337.2,155.2-375.6c138-59.4,274,36.4,274,189.7c-1.9,141.8-55.6,471.4-86.2,517.4C5939.9,3018.4,5801.9,3041.4,5715.7,2974.3z"/><path d="M5882.4,1759.5c-105.4-46-122.6-107.3-107.3-392.8c9.6-224.2,17.3-258.7,61.3-325.7c72.8-113,126.5-130.3,427.3-138c252.9-5.7,262.5-3.8,310.4,40.2c93.9,88.1,82.4,251-21.1,320c-32.6,19.2-107.3,34.5-206.9,42.2l-157.1,9.6l-11.5,161c-13.4,185.9-42.2,245.3-138,285.5C5960.9,1794,5959,1794,5882.4,1759.5z"/><path d="M4694.4,1328.4c-24.9-9.6-61.3-46-82.4-80.5c-53.6-86.2-40.2-180.1,38.3-249.1c57.5-53.7,59.4-53.7,337.2-53.7c153.3,0,295.1,9.6,316.2,19.2c47.9,26.8,93.9,118.8,93.9,193.5c0,42.1-19.2,78.6-65.1,124.6l-65.2,65.1l-264.4-1.9C4855.3,1345.6,4717.4,1337.9,4694.4,1328.4z"/><path d="M7120.2,1157.8c-80.5-82.4-78.6-193.5,7.7-277.8c57.5-57.5,74.7-63.2,316.2-93.9c231.9-30.7,260.6-30.7,318.1-3.8c97.7,46,139.9,151.4,99.6,249.1c-40.2,93.9-103.5,124.5-312.3,155.2C7252.4,1228.7,7187.3,1223,7120.2,1157.8z"/><path d="M8346.5,947.1c-63.2-65.1-74.7-159-26.8-249.1c30.6-63.2,57.5-74.7,358.3-157.1c201.2-55.6,229.9-59.4,285.5-36.4c67.1,28.7,132.2,120.7,132.2,187.8c0,59.4-49.8,151.4-93.9,174.4c-69,38.3-450.3,136.1-525,136.1C8421.2,1002.6,8390.6,989.2,8346.5,947.1z"/><path d="M5941.8,523.6c-23-7.7-59.4-40.2-82.4-69c-36.4-47.9-40.2-74.7-40.2-337.2V-170l55.6-55.6c82.4-82.4,193.5-78.5,281.7,9.6l65.2,65.2v260.6c0,291.3-17.2,354.5-115,404.3C6045.2,546.6,6003.1,548.5,5941.8,523.6z"/><path d="M2420,1184.7c-93.9-13.4-191.6-36.4-216.5-49.8c-57.5-30.7-101.6-111.1-101.6-187.8c0-70.9,78.6-166.7,149.5-184c70.9-15.3,551.9,55.6,590.2,88.1c99.6,82.4,103.5,229.9,5.7,312.3C2780.2,1221.1,2699.7,1224.9,2420,1184.7z"/><path d="M1201.3,937.5c-252.9-74.7-306.6-116.9-306.6-245.3c0-61.3,13.4-90,65.2-141.8c36.4-36.4,82.4-65.1,103.5-65.1c59.4,0,523.1,130.3,553.8,157.1c97.7,80.5,99.6,229.9,3.8,310.4C1542.3,1017.9,1473.4,1016,1201.3,937.5z"/><path d="M5754-2009.5c-59.4-59.4-63.3-76.7-93.9-323.8c-26.8-208.8-28.7-272.1-11.5-310.4c65.1-143.7,289.3-149.5,364-9.6c26.8,47.9,74.7,369.8,74.7,500.1c0,76.6-9.6,101.5-55.6,149.5C5949.4-1923.3,5838.3-1925.2,5754-2009.5z"/><path d="M5547.1-3218.6c-26.8-24.9-53.7-61.3-59.4-82.4c-138-486.7-136-484.8-103.5-553.8c46-95.8,141.8-138,241.4-109.2c97.7,30.7,124.6,74.7,193.5,321.9c74.7,266.3,74.7,339.2,1.9,412C5746.3-3157.3,5619.9-3151.5,5547.1-3218.6z"/></g></g>
</svg>