<svg xmlns="http://www.w3.org/2000/svg" width="393" height="393" xml:space="preserve" fill="#91caed"><path d="M196.2 386.1c-23.5 0-48.8-5.3-48.8-16.8s25.3-16.8 48.8-16.8 48.9 5.2 48.9 16.8-25.3 16.8-48.9 16.8zm0-25.6c-26.7 0-40.2 6.4-40.8 8.8s14.1 8.8 40.8 8.8 40.2-6.4 40.9-8.8-14.2-8.8-40.9-8.8zM198.6 334.8c-43.7 0-85-4.7-116-13.3C40.8 310 32 295.8 32 286s8.8-24 50.6-35.6c31-8.5 72.2-13.3 116-13.3s85 4.8 116 13.3c41.8 11.6 50.5 25.7 50.5 35.6s-8.7 24-50.5 35.6c-31 8.5-72.2 13.2-116 13.2zm0-89.7c-43 0-83.5 4.6-113.9 13C56.8 265.8 40 276.2 40 286s16.7 20.1 44.7 27.9c30.4 8.3 70.8 13 113.9 13s83.6-4.7 113.9-13c28-7.8 44.7-18.2 44.7-27.9s-16.7-20.1-44.7-27.9c-30.3-8.4-70.8-13-113.9-13z"/><path d="M289.89 320.121 120.084 64.48l-6.765 4.336 169.908 255.732z"/><path d="M196.2 251.5c-50 0-97-5.4-132.4-15.1-47.4-13.1-57.4-29-57.4-40.2s10-27 57.4-40.1c35.4-9.7 82.5-15.1 132.4-15.1s97 5.4 132.5 15.2c47.4 13 57.4 29 57.4 40.1s-10 27-57.4 40.1c-35.4 9.7-82.5 15.1-132.5 15.1zm0-102.5c-49.2 0-95.5 5.3-130.3 14.9-32.2 8.9-51.5 21-51.5 32.3s19.3 23.6 51.5 32.4c34.8 9.6 81.1 14.9 130.3 14.9s95.6-5.3 130.4-14.9c32.2-8.8 51.5-21 51.5-32.4s-19.3-23.4-51.5-32.3c-34.8-9.6-81.1-14.9-130.4-14.9z"/><path d="M198.6 155.4c-43.7 0-85-4.7-116-13.3C40.8 130.6 32 116.4 32 106.5s8.8-24 50.6-35.5c31-8.6 72.2-13.3 116-13.3s85 4.7 116 13.3c41.8 11.5 50.5 25.7 50.5 35.5s-8.7 24.1-50.5 35.6c-31 8.6-72.2 13.3-116 13.3zm0-89.7c-43 0-83.5 4.6-113.9 13C56.8 86.4 40 96.8 40 106.5s16.7 20.2 44.7 27.9c30.4 8.4 70.8 13 113.9 13s83.6-4.6 113.9-13c28-7.7 44.7-18.1 44.7-27.9s-16.7-20.1-44.7-27.8c-30.3-8.4-70.8-13-113.9-13zM196.2 40c-23.5 0-48.8-5.3-48.8-16.8s25.3-16.8 48.8-16.8 48.9 5.3 48.9 16.8S219.8 40 196.2 40zm0-25.6c-26.7 0-40.2 6.4-40.8 8.8s14.1 8.8 40.8 8.8 40.2-6.3 40.9-8.8-14.2-8.8-40.9-8.8z"/><path d="M196.2 392.5C88 392.5 0 304.5 0 196.2S88 0 196.2 0s196.3 88 196.3 196.2-88 196.3-196.3 196.3zm0-384.5C92.4 8 8 92.4 8 196.2s84.4 188.3 188.2 188.3S384.5 300 384.5 196.2 300 8 196.2 8z"/><circle r="19.2" cx="286.7" cy="320.9"/><circle r="19.2" cx="115.8" cy="67"/></svg>